<svg xmlns="http://www.w3.org/2000/svg" width="640" height="520" viewBox="0 0 640 520" role="img" aria-label="Workspace illustration">
  <defs>
    <linearGradient id="a" x1="0" y1="0" x2="1" y2="1">
      <stop offset="0" stop-color="#0b1026"/>
      <stop offset="1" stop-color="#070914"/>
    </linearGradient>
    <linearGradient id="b" x1="0" y1="0" x2="1" y2="1">
      <stop offset="0" stop-color="#7c5cff"/>
      <stop offset="1" stop-color="#2de2e6"/>
    </linearGradient>
    <radialGradient id="c" cx="20%" cy="15%" r="80%">
      <stop offset="0" stop-color="#ffffff" stop-opacity="0.25"/>
      <stop offset="1" stop-color="#ffffff" stop-opacity="0"/>
    </radialGradient>
  </defs>

  <rect x="18" y="18" width="604" height="484" rx="36" fill="url(#a)"/>
  <rect x="18" y="18" width="604" height="484" rx="36" fill="url(#c)"/>

  <!-- screen -->
  <g>
    <rect x="90" y="92" width="460" height="260" rx="22" fill="rgba(255,255,255,0.06)" stroke="rgba(255,255,255,0.18)"/>
    <rect x="118" y="122" width="404" height="200" rx="16" fill="rgba(0,0,0,0.20)"/>
    <rect x="118" y="122" width="404" height="42" rx="16" fill="rgba(255,255,255,0.07)"/>
    <circle cx="140" cy="144" r="6" fill="rgba(255,255,255,0.38)"/>
    <circle cx="160" cy="144" r="6" fill="rgba(255,255,255,0.30)"/>
    <circle cx="180" cy="144" r="6" fill="rgba(255,255,255,0.22)"/>

    <path d="M144 204h228" stroke="rgba(255,255,255,0.26)" stroke-width="10" stroke-linecap="round"/>
    <path d="M144 238h310" stroke="rgba(255,255,255,0.22)" stroke-width="10" stroke-linecap="round"/>
    <path d="M144 272h180" stroke="rgba(255,255,255,0.20)" stroke-width="10" stroke-linecap="round"/>

    <rect x="420" y="206" width="78" height="28" rx="14" fill="url(#b)" opacity="0.9"/>
    <rect x="420" y="246" width="60" height="28" rx="14" fill="rgba(255,255,255,0.14)"/>
  </g>

  <!-- desk -->
  <g>
    <rect x="84" y="372" width="472" height="20" rx="10" fill="rgba(255,255,255,0.10)"/>
    <rect x="110" y="392" width="420" height="52" rx="20" fill="rgba(255,255,255,0.06)" stroke="rgba(255,255,255,0.14)"/>
    <rect x="140" y="408" width="150" height="12" rx="6" fill="rgba(255,255,255,0.14)"/>
    <rect x="304" y="408" width="90" height="12" rx="6" fill="rgba(255,255,255,0.10)"/>
    <rect x="406" y="404" width="96" height="22" rx="11" fill="url(#b)" opacity="0.75"/>
  </g>

  <!-- accent dots -->
  <g opacity="0.6">
    <circle cx="556" cy="110" r="7" fill="rgba(45,226,230,0.8)"/>
    <circle cx="520" cy="420" r="6" fill="rgba(124,92,255,0.8)"/>
    <circle cx="120" cy="120" r="6" fill="rgba(255,255,255,0.5)"/>
  </g>
</svg>
