<svg xmlns="http://www.w3.org/2000/svg" width="560" height="560" viewBox="0 0 560 560" role="img" aria-label="Profile illustration">
  <defs>
    <linearGradient id="bg" x1="0" y1="0" x2="1" y2="1">
      <stop offset="0" stop-color="#7c5cff" stop-opacity="0.9"/>
      <stop offset="1" stop-color="#2de2e6" stop-opacity="0.8"/>
    </linearGradient>
    <radialGradient id="glow" cx="30%" cy="20%" r="70%">
      <stop offset="0" stop-color="#ffffff" stop-opacity="0.35"/>
      <stop offset="1" stop-color="#ffffff" stop-opacity="0"/>
    </radialGradient>
    <filter id="shadow" x="-30%" y="-30%" width="160%" height="160%">
      <feDropShadow dx="0" dy="22" stdDeviation="18" flood-color="#000000" flood-opacity="0.35"/>
    </filter>
  </defs>

  <rect x="22" y="22" width="516" height="516" rx="40" fill="url(#bg)"/>
  <rect x="22" y="22" width="516" height="516" rx="40" fill="url(#glow)"/>

  <g filter="url(#shadow)">
    <rect x="86" y="86" width="388" height="388" rx="42" fill="rgba(8,10,22,0.25)" stroke="rgba(255,255,255,0.28)"/>
    <circle cx="280" cy="240" r="78" fill="rgba(255,255,255,0.85)"/>
    <path d="M155 430c18-74 80-122 125-122h0c45 0 107 48 125 122" fill="rgba(255,255,255,0.85)"/>

    <path d="M150 150h260" stroke="rgba(255,255,255,0.45)" stroke-width="10" stroke-linecap="round" opacity="0.55"/>
    <path d="M150 190h190" stroke="rgba(255,255,255,0.45)" stroke-width="10" stroke-linecap="round" opacity="0.35"/>
    <path d="M150 470h240" stroke="rgba(255,255,255,0.45)" stroke-width="10" stroke-linecap="round" opacity="0.35"/>
  </g>

  <g opacity="0.65">
    <circle cx="500" cy="122" r="8" fill="rgba(255,255,255,0.65)"/>
    <circle cx="124" cy="492" r="6" fill="rgba(255,255,255,0.55)"/>
    <circle cx="460" cy="468" r="5" fill="rgba(255,255,255,0.5)"/>
  </g>
</svg>
